<svg width="150" height="49" viewBox="0 0 150 49" fill="none" xmlns="http://www.w3.org/2000/svg">
<path fill-rule="evenodd" clip-rule="evenodd" d="M150 34.7846C149.259 34.8976 148.594 34.9812 148 35.037C147.403 35.0956 146.865 35.1235 146.385 35.1235C145.902 35.1235 145.364 35.0956 144.77 35.037C144.176 34.9812 143.52 34.8962 142.812 34.7846V12.844C143.435 12.7004 144.051 12.6027 144.662 12.5441C145.272 12.4884 145.859 12.4591 146.427 12.4591C146.965 12.4591 147.547 12.4884 148.169 12.5441C148.792 12.6027 149.402 12.7004 150 12.844V34.7846ZM140.746 28.8305C140.885 29.3967 140.977 29.9211 141.021 30.4065C141.063 30.8877 141.086 31.3535 141.086 31.8068C141.086 32.2587 141.064 32.7357 141.021 33.2336C140.977 33.726 140.887 34.2602 140.746 34.8264H125.524L125.566 12.8454C126.189 12.7018 126.803 12.6041 127.412 12.5455C128.023 12.4898 128.61 12.4605 129.178 12.4605C129.716 12.4605 130.298 12.4898 130.92 12.5455C131.543 12.6041 132.153 12.7018 132.751 12.8454L132.708 28.8305H140.746ZM105.726 23.8554C105.726 22.1539 105.967 20.5959 106.447 19.1775C106.929 17.7618 107.638 16.5484 108.574 15.5428C109.509 14.5358 110.655 13.7492 112.016 13.1829C113.38 12.6153 114.939 12.3321 116.695 12.3321C117.289 12.3321 117.857 12.3475 118.395 12.374C118.934 12.4033 119.465 12.4591 119.991 12.5441C120.512 12.6306 121.051 12.7589 121.606 12.9277C122.161 13.0979 122.773 13.3113 123.455 13.5651C123.511 14.5316 123.426 15.4842 123.197 16.4355C122.971 17.3867 122.617 18.3142 122.137 19.2207C121.658 19.0506 121.224 18.9181 120.839 18.8191C120.457 18.7158 120.094 18.6391 119.755 18.582C119.416 18.5248 119.079 18.4913 118.757 18.4773C118.43 18.4634 118.081 18.4564 117.716 18.4564C116.356 18.4564 115.229 18.8595 114.335 19.6671C113.441 20.4732 112.995 21.8707 112.995 23.8554C112.995 24.9043 113.129 25.7774 113.399 26.472C113.667 27.1638 114.026 27.7105 114.462 28.1066C114.9 28.5027 115.412 28.7886 115.994 28.9588C116.574 29.1289 117.19 29.2112 117.843 29.2112C118.664 29.2112 119.38 29.1429 119.989 29.0006C120.599 28.857 121.314 28.6338 122.136 28.3186C122.616 29.0871 123.001 29.9435 123.281 30.8919C123.568 31.8431 123.709 32.9268 123.709 34.1444C122.404 34.6549 121.215 34.9812 120.136 35.1235C119.059 35.263 117.982 35.3369 116.906 35.3369C115.091 35.3369 113.49 35.0663 112.099 34.5266C110.713 33.9896 109.544 33.2183 108.592 32.2099C107.642 31.2043 106.928 29.9979 106.444 28.5962C105.964 27.1944 105.723 25.6114 105.723 23.8554H105.726ZM95.6235 30.0216C95.8745 30.0216 96.2469 29.9937 96.7267 29.9365C97.2093 29.8807 97.5649 29.8221 97.7909 29.7677V25.0884H95.3668C94.3752 25.0884 93.5397 25.3004 92.8577 25.7258C92.1785 26.1526 91.8395 26.7453 91.8395 27.5124C91.8395 28.0787 91.9665 28.525 92.2217 28.8514C92.4769 29.1736 92.7963 29.426 93.1813 29.5948C93.5592 29.7663 93.9707 29.8793 94.4114 29.9337C94.8522 29.9909 95.2538 30.0188 95.6248 30.0188L95.6235 30.0216ZM85.5869 27.6394C85.5869 26.253 85.884 25.1037 86.4768 24.1972C87.0737 23.2878 87.838 22.5667 88.7739 22.0269C89.7098 21.4886 90.7447 21.1134 91.88 20.9C93.0125 20.6894 94.1185 20.5834 95.1953 20.5834H97.7895C97.763 20.0715 97.6193 19.6447 97.3627 19.3058C97.1116 18.9641 96.7811 18.7047 96.3864 18.5192C95.9875 18.3351 95.5509 18.2082 95.0683 18.137C94.5858 18.0659 94.0892 18.031 93.5802 18.031C92.8981 18.031 92.1045 18.1077 91.198 18.264C90.2942 18.4188 89.3569 18.667 88.3917 19.0087C88.1365 18.5262 87.9148 18.0868 87.732 17.6907C87.5493 17.2946 87.4057 16.8915 87.308 16.4787C87.2062 16.07 87.1379 15.6432 87.0919 15.2025C87.0528 14.7632 87.0305 14.2611 87.0305 13.6948C88.3917 13.2401 89.7446 12.8984 91.0892 12.6711C92.4407 12.4437 93.6513 12.3321 94.728 12.3321C96.1995 12.3321 97.5342 12.5093 98.7253 12.8635C99.9164 13.2192 100.928 13.7631 101.767 14.4996C102.603 15.2374 103.248 16.1802 103.699 17.3281C104.152 18.4774 104.381 19.8428 104.381 21.43V33.8892C103.304 34.1988 101.999 34.5126 100.469 34.8236C98.9387 35.1361 97.3194 35.2909 95.6235 35.2909C94.1478 35.2909 92.7949 35.1584 91.5606 34.8906C90.3276 34.6186 89.2704 34.1876 88.3931 33.5921C87.5145 32.9965 86.8269 32.2085 86.3303 31.2308C85.8338 30.2531 85.5855 29.055 85.5855 27.6366L85.5869 27.6394ZM73.7387 12.42C74.9856 12.42 76.2311 12.526 77.4807 12.738C78.7304 12.95 79.8532 13.3963 80.8616 14.077C81.8658 14.7576 82.6887 15.7325 83.3289 17.0101C83.9649 18.2863 84.2843 19.9725 84.2843 22.0688V34.7846C83.5464 34.9255 82.8811 35.0175 82.2842 35.0607C81.69 35.104 81.1642 35.1249 80.7137 35.1249C80.2312 35.1249 79.6928 35.104 79.0958 35.0607C78.5017 35.0175 77.8336 34.9255 77.0986 34.7846V22.8345C77.0986 21.3338 76.8113 20.2556 76.2464 19.6043C75.6787 18.953 74.814 18.6266 73.6522 18.6266C73.3398 18.6266 73.0092 18.6545 72.6536 18.7117C72.2979 18.7675 72.0789 18.8232 71.9952 18.8818V34.786C71.2574 34.9268 70.5921 35.0189 69.9952 35.0621C69.4024 35.1054 68.8766 35.1263 68.4233 35.1263C67.9408 35.1263 67.4052 35.1054 66.8082 35.0621C66.2155 35.0189 65.546 34.9268 64.8082 34.786V13.9082C65.8026 13.5665 67.0077 13.2359 68.4233 12.9082C69.8432 12.5818 71.6117 12.42 73.7387 12.42ZM49.9445 12.2931L47.0923 23.2194C47.5748 23.3603 48.0281 23.4747 48.4535 23.5584C48.8803 23.6448 49.3182 23.6881 49.7757 23.6881C50.2555 23.6881 50.7325 23.6504 51.1984 23.5821C51.6642 23.5096 52.1537 23.4022 52.667 23.2613L49.9459 12.2931H49.9445ZM43.9904 34.7427C43.3376 34.8571 42.7435 34.9422 42.2051 34.998C41.6667 35.0552 41.1423 35.0817 40.6332 35.0817C40.1214 35.0817 39.5342 35.0482 38.8675 34.9757C38.2022 34.9059 37.4588 34.7999 36.6359 34.6577L46.1606 4.29847C46.8984 4.212 47.5832 4.14226 48.2234 4.08368C48.8594 4.0279 49.5051 4 50.1579 4C50.6962 4 51.2834 4.0279 51.9194 4.08368C52.5582 4.14226 53.2905 4.212 54.112 4.29847L63.5055 34.7009C61.8904 34.9547 60.4747 35.0803 59.2543 35.0803C58.6895 35.0803 58.1218 35.0524 57.5542 34.9966C56.9865 34.9408 56.3798 34.8557 55.7271 34.7414L54.112 28.8305C53.3156 29.0578 52.5582 29.228 51.8344 29.3409C51.1105 29.4553 50.395 29.5111 49.6879 29.5111C49.0351 29.5111 48.3698 29.4637 47.6906 29.3605C47.01 29.2628 46.3014 29.1164 45.5636 28.9169L43.9918 34.7414L43.9904 34.7427Z" fill="white"/>
<path fill-rule="evenodd" clip-rule="evenodd" d="M142.71 39.9479C142.766 39.9382 142.83 39.9312 142.893 39.9256C142.961 39.9186 143.029 39.9172 143.102 39.9172C143.17 39.9172 143.239 39.9186 143.307 39.9256C143.375 39.9326 143.441 39.9382 143.502 39.9479V44.8909H145.718C145.731 44.9494 145.738 45.008 145.738 45.0722C145.741 45.1363 145.741 45.1935 145.741 45.2451C145.741 45.3707 145.734 45.4892 145.718 45.598H142.71V39.9479ZM138.71 43.5965H140.43L139.565 40.7108L138.71 43.5965ZM140.642 44.2953H138.498L138.113 45.5994C138.045 45.6105 137.976 45.6189 137.908 45.6259C137.842 45.6301 137.771 45.6343 137.706 45.6343C137.632 45.6343 137.559 45.6315 137.487 45.6259C137.416 45.6189 137.35 45.6105 137.297 45.5994L139.134 39.9493C139.199 39.9396 139.275 39.9326 139.353 39.927C139.432 39.92 139.513 39.9186 139.598 39.9186C139.674 39.9186 139.749 39.92 139.824 39.927C139.905 39.934 139.98 39.9396 140.056 39.9493L141.886 45.5994C141.824 45.6105 141.752 45.6189 141.674 45.6259C141.596 45.6301 141.52 45.6343 141.445 45.6343C141.377 45.6343 141.305 45.6315 141.236 45.6259C141.167 45.6189 141.099 45.6105 141.036 45.5994L140.642 44.2953ZM135.675 39.9493C135.74 39.9396 135.802 39.9326 135.872 39.927C135.94 39.92 136.008 39.9186 136.077 39.9186C136.145 39.9186 136.213 39.92 136.282 39.927C136.347 39.934 136.415 39.9396 136.474 39.9493V45.5994C136.415 45.6105 136.35 45.6189 136.284 45.6259C136.219 45.6301 136.148 45.6343 136.075 45.6343C136.007 45.6343 135.934 45.6315 135.866 45.6259C135.798 45.6189 135.732 45.6105 135.673 45.5994V39.9493H135.675ZM130.996 39.9423C131.113 39.9326 131.22 39.9186 131.312 39.9089C131.41 39.8977 131.498 39.8893 131.59 39.881C131.68 39.8726 131.778 39.8684 131.877 39.8615C131.979 39.8559 132.089 39.8531 132.21 39.8531C132.474 39.8531 132.742 39.881 133.003 39.9312C133.263 39.9842 133.499 40.0762 133.701 40.2073C133.906 40.3371 134.072 40.5156 134.201 40.7373C134.332 40.9605 134.396 41.2394 134.396 41.5826C134.396 41.789 134.36 41.9731 134.291 42.1404C134.223 42.3092 134.138 42.4584 134.033 42.5882C133.926 42.7193 133.807 42.8336 133.671 42.9299C133.541 43.0261 133.413 43.1056 133.286 43.1698L133.191 43.2172L134.832 45.598C134.692 45.6133 134.533 45.6245 134.353 45.6245C134.212 45.6245 134.072 45.6147 133.929 45.598L132.121 42.9829V42.9508L132.182 42.9341C132.326 42.8978 132.473 42.849 132.633 42.7848C132.791 42.7234 132.933 42.6398 133.067 42.5366C133.203 42.4361 133.315 42.3134 133.403 42.1683C133.491 42.0247 133.537 41.8503 133.537 41.6467C133.537 41.2687 133.422 40.9898 133.203 40.8043C132.977 40.6216 132.678 40.5295 132.302 40.5295C132.21 40.5295 132.129 40.5309 132.054 40.5365C131.976 40.5435 131.891 40.549 131.8 40.5602V45.5966C131.742 45.6008 131.676 45.6078 131.604 45.6119C131.533 45.6189 131.467 45.6217 131.408 45.6217C131.343 45.6217 131.275 45.6189 131.203 45.6161C131.128 45.6133 131.06 45.6064 130.994 45.5952V39.9396L130.996 39.9423ZM127.429 45.001C127.694 45.001 127.919 44.9508 128.111 44.849C128.301 44.7472 128.46 44.5994 128.584 44.4055C128.711 44.2116 128.806 43.9801 128.869 43.7039C128.931 43.432 128.963 43.1237 128.963 42.7778C128.963 42.4389 128.931 42.1307 128.869 41.8559C128.807 41.5784 128.712 41.3468 128.584 41.1544C128.46 40.9633 128.3 40.8168 128.111 40.715C127.919 40.6118 127.694 40.5616 127.429 40.5616C127.168 40.5616 126.94 40.6118 126.75 40.715C126.558 40.8168 126.397 40.9619 126.273 41.1544C126.146 41.3468 126.051 41.5784 125.993 41.8559C125.927 42.1307 125.898 42.4375 125.898 42.7778C125.898 43.1237 125.927 43.432 125.993 43.7039C126.051 43.9801 126.146 44.2116 126.273 44.4055C126.397 44.5994 126.558 44.7486 126.75 44.849C126.938 44.9508 127.167 45.001 127.429 45.001ZM127.429 45.6942C127.022 45.6942 126.669 45.6203 126.369 45.478C126.069 45.3344 125.821 45.1308 125.624 44.8685C125.429 44.6133 125.281 44.3051 125.184 43.9466C125.089 43.591 125.04 43.199 125.04 42.775C125.04 42.351 125.089 41.9605 125.184 41.6035C125.281 41.2478 125.428 40.9396 125.624 40.6802C125.82 40.4207 126.068 40.2185 126.369 40.0734C126.669 39.927 127.022 39.8517 127.429 39.8517C127.836 39.8517 128.192 39.927 128.489 40.0734C128.789 40.2185 129.037 40.4207 129.234 40.6802C129.429 40.9396 129.577 41.2478 129.671 41.6035C129.763 41.9605 129.811 42.351 129.811 42.775C129.811 43.199 129.763 43.591 129.671 43.9466C129.576 44.3037 129.429 44.6119 129.234 44.8685C129.037 45.1294 128.789 45.3344 128.489 45.478C128.192 45.6203 127.836 45.6942 127.429 45.6942ZM122.094 40.6481H120.623C120.613 40.5951 120.603 40.5365 120.599 40.4751C120.596 40.411 120.592 40.3524 120.592 40.2938C120.592 40.2366 120.595 40.1767 120.599 40.1181C120.602 40.0567 120.612 39.9995 120.623 39.9479H124.365C124.375 39.9981 124.382 40.0553 124.387 40.1125C124.394 40.1711 124.394 40.2269 124.394 40.2854C124.394 40.344 124.394 40.4054 124.387 40.4696C124.38 40.5365 124.375 40.5951 124.365 40.6467H122.894V45.5966C122.774 45.6119 122.642 45.6231 122.502 45.6231C122.355 45.6231 122.217 45.6133 122.094 45.5966V40.6467V40.6481ZM117.118 43.5965H118.838L117.976 40.7108L117.118 43.5965ZM116.906 44.2953L116.521 45.5994C116.453 45.6105 116.384 45.6189 116.316 45.6259C116.248 45.6301 116.179 45.6343 116.114 45.6343C116.038 45.6343 115.966 45.6315 115.895 45.6259C115.826 45.6189 115.761 45.6105 115.702 45.5994L117.543 39.9493C117.612 39.9396 117.684 39.9326 117.762 39.927C117.845 39.92 117.923 39.9186 118.008 39.9186C118.079 39.9186 118.157 39.92 118.237 39.927C118.315 39.934 118.39 39.9396 118.465 39.9493L120.295 45.5994C120.234 45.6105 120.161 45.6189 120.083 45.6259C120.005 45.6301 119.93 45.6343 119.854 45.6343C119.786 45.6343 119.718 45.6315 119.645 45.6259C119.577 45.6189 119.509 45.6105 119.446 45.5994L119.054 44.2953H116.906ZM111.593 39.9423C111.708 39.9326 111.812 39.9186 111.906 39.9089C111.998 39.8977 112.091 39.8893 112.186 39.881C112.277 39.8726 112.372 39.8684 112.471 39.8615C112.572 39.8559 112.683 39.8531 112.801 39.8531C113.069 39.8531 113.333 39.881 113.598 39.9312C113.858 39.9842 114.094 40.0762 114.296 40.2073C114.503 40.3371 114.669 40.5156 114.796 40.7373C114.923 40.9605 114.988 41.2394 114.988 41.5826C114.988 41.789 114.956 41.9731 114.886 42.1404C114.818 42.3092 114.733 42.4584 114.626 42.5882C114.521 42.7193 114.404 42.8336 114.27 42.9299C114.136 43.0261 114.006 43.1056 113.882 43.1698L113.785 43.2172L115.426 45.598C115.289 45.6133 115.129 45.6245 114.951 45.6245C114.81 45.6245 114.67 45.6147 114.525 45.598L112.722 42.9829V42.9508L112.78 42.9341C112.921 42.8978 113.07 42.849 113.228 42.7848C113.384 42.7234 113.531 42.6398 113.666 42.5366C113.8 42.4361 113.91 42.3134 113.999 42.1683C114.09 42.0247 114.136 41.8503 114.136 41.6467C114.136 41.2687 114.022 40.9898 113.8 40.8043C113.578 40.6216 113.278 40.5295 112.899 40.5295C112.811 40.5295 112.73 40.5309 112.651 40.5365C112.577 40.5435 112.492 40.549 112.397 40.5602V45.5966C112.338 45.6008 112.277 45.6078 112.204 45.6119C112.136 45.6189 112.068 45.6217 112.002 45.6217C111.943 45.6217 111.871 45.6189 111.798 45.6161C111.727 45.6133 111.659 45.6064 111.596 45.5952V39.9396L111.593 39.9423ZM108.024 45.001C108.285 45.001 108.511 44.9508 108.703 44.849C108.896 44.7472 109.052 44.5994 109.181 44.4055C109.307 44.2116 109.399 43.9801 109.465 43.7039C109.526 43.432 109.556 43.1237 109.556 42.7778C109.556 42.4389 109.526 42.1307 109.465 41.8559C109.399 41.5784 109.309 41.3468 109.181 41.1544C109.054 40.9633 108.896 40.8168 108.703 40.715C108.511 40.6118 108.286 40.5616 108.024 40.5616C107.763 40.5616 107.539 40.6118 107.346 40.715C107.154 40.8168 106.994 40.9619 106.869 41.1544C106.743 41.3468 106.648 41.5784 106.585 41.8559C106.524 42.1307 106.49 42.4375 106.49 42.7778C106.49 43.1237 106.522 43.432 106.585 43.7039C106.646 43.9801 106.741 44.2116 106.869 44.4055C106.994 44.5994 107.154 44.7486 107.346 44.849C107.539 44.9508 107.763 45.001 108.024 45.001ZM108.024 45.6942C107.617 45.6942 107.261 45.6203 106.964 45.478C106.664 45.3344 106.416 45.1308 106.221 44.8685C106.024 44.6133 105.878 44.3051 105.78 43.9466C105.683 43.591 105.636 43.199 105.636 42.775C105.636 42.351 105.683 41.9605 105.78 41.6035C105.878 41.2478 106.024 40.9396 106.221 40.6802C106.416 40.4207 106.664 40.2185 106.964 40.0734C107.261 39.927 107.617 39.8517 108.024 39.8517C108.432 39.8517 108.784 39.927 109.086 40.0734C109.383 40.2185 109.631 40.4207 109.829 40.6802C110.024 40.9396 110.172 41.2478 110.263 41.6035C110.36 41.9605 110.406 42.351 110.406 42.775C110.406 43.199 110.36 43.591 110.263 43.9466C110.171 44.3037 110.024 44.6119 109.829 44.8685C109.631 45.1294 109.383 45.3344 109.086 45.478C108.786 45.6203 108.433 45.6942 108.024 45.6942ZM102.546 42.3064C102.904 42.3064 103.176 42.2283 103.362 42.0735C103.554 41.9201 103.645 41.6872 103.645 41.3789C103.645 41.0804 103.543 40.8573 103.345 40.7108C103.14 40.563 102.869 40.4905 102.523 40.4905C102.419 40.4905 102.318 40.4933 102.221 40.4988C102.123 40.5058 102.041 40.5128 101.973 40.5226V42.3078H102.547L102.546 42.3064ZM101.971 44.9773C102.044 44.9885 102.137 44.9969 102.251 44.9997C102.363 45.0038 102.477 45.008 102.585 45.008C102.774 45.008 102.95 44.9927 103.116 44.9634C103.282 44.9327 103.426 44.8769 103.554 44.8016C103.678 44.7249 103.776 44.6245 103.851 44.4948C103.922 44.3678 103.961 44.2047 103.961 44.0024C103.961 43.8099 103.927 43.6454 103.861 43.5129C103.793 43.3804 103.698 43.2716 103.581 43.1893C103.461 43.1098 103.323 43.0512 103.159 43.0163C102.996 42.9815 102.821 42.9675 102.634 42.9675H101.971V44.9773ZM101.178 39.9479C101.307 39.9228 101.491 39.9005 101.726 39.8838C101.964 39.8684 102.201 39.8615 102.444 39.8615C102.744 39.8615 103.014 39.8879 103.26 39.9409C103.504 39.9912 103.716 40.0762 103.893 40.1948C104.069 40.3133 104.207 40.464 104.305 40.6495C104.399 40.8336 104.444 41.0623 104.444 41.3287C104.444 41.4919 104.422 41.6439 104.373 41.782C104.324 41.9201 104.258 42.0442 104.173 42.1502C104.088 42.2576 103.991 42.3455 103.883 42.418C103.772 42.4905 103.657 42.5407 103.544 42.5714C103.692 42.5868 103.841 42.6272 103.989 42.6886C104.139 42.7527 104.277 42.842 104.394 42.9578C104.514 43.0735 104.613 43.2186 104.691 43.3929C104.765 43.5673 104.802 43.7807 104.802 44.0317C104.802 44.3372 104.744 44.5924 104.623 44.8058C104.503 45.0178 104.338 45.1907 104.13 45.3218C103.925 45.4543 103.68 45.5492 103.402 45.6064C103.122 45.6635 102.818 45.6928 102.501 45.6928C102.302 45.6928 102.084 45.6831 101.848 45.6635C101.61 45.6468 101.388 45.6245 101.179 45.5966V39.9465L101.178 39.9479ZM97.1676 43.5965H98.8901L98.0254 40.7108L97.1676 43.5965ZM99.1021 44.2953H96.9556L96.5707 45.5994C96.5051 45.6105 96.4368 45.6189 96.3685 45.6259C96.3001 45.6301 96.2318 45.6343 96.1634 45.6343C96.0881 45.6343 96.017 45.6315 95.9473 45.6259C95.8761 45.6189 95.8134 45.6105 95.7548 45.5994L97.5916 39.9493C97.66 39.9396 97.7353 39.9326 97.8134 39.927C97.8915 39.92 97.9738 39.9186 98.0575 39.9186C98.1286 39.9186 98.2067 39.92 98.2834 39.927C98.3615 39.934 98.4396 39.9396 98.5122 39.9493L100.346 45.5994C100.281 45.6105 100.212 45.6189 100.13 45.6259C100.052 45.6301 99.9794 45.6343 99.9041 45.6343C99.8358 45.6343 99.7674 45.6315 99.6949 45.6259C99.6238 45.6189 99.554 45.6105 99.4927 45.5994L99.1007 44.2953H99.1021ZM92.4297 39.9493C92.4883 39.9396 92.5469 39.9326 92.6152 39.927C92.6766 39.92 92.7491 39.9186 92.8203 39.9186C92.8928 39.9186 92.9569 39.92 93.0267 39.927C93.0922 39.934 93.1606 39.9396 93.2219 39.9493V44.8923H95.4368C95.4465 44.9508 95.4563 45.0094 95.4591 45.0736C95.4591 45.1377 95.4619 45.1949 95.4619 45.2465C95.4619 45.3721 95.4521 45.4906 95.4354 45.5994H92.4269V39.9493H92.4297ZM87.0126 45.0024C87.2734 45.0024 87.5021 44.9522 87.6946 44.8504C87.8829 44.7486 88.0433 44.6008 88.1702 44.4069C88.2943 44.213 88.3892 43.9815 88.4506 43.7053C88.5161 43.4334 88.5454 43.1251 88.5454 42.7792C88.5454 42.4403 88.5161 42.1321 88.4506 41.8573C88.3892 41.5798 88.2943 41.3482 88.1702 41.1558C88.0433 40.9647 87.8829 40.8182 87.6946 40.7164C87.5021 40.6132 87.2734 40.563 87.0126 40.563C86.7518 40.563 86.5258 40.6132 86.3306 40.7164C86.1409 40.8182 85.9819 40.9633 85.8577 41.1558C85.7336 41.3482 85.6388 41.5798 85.5732 41.8573C85.5119 42.1321 85.4812 42.4389 85.4812 42.7792C85.4812 43.1251 85.5105 43.4334 85.5732 43.7053C85.6388 43.9815 85.7336 44.213 85.8577 44.4069C85.9819 44.6008 86.1409 44.75 86.3306 44.8504C86.5258 44.9522 86.7518 45.0024 87.0126 45.0024ZM87.0126 45.6956C86.6053 45.6956 86.2525 45.6217 85.9526 45.4794C85.6555 45.3358 85.4086 45.1322 85.212 44.8699C85.0125 44.6147 84.8661 44.3065 84.7712 43.948C84.6736 43.5924 84.6248 43.2004 84.6248 42.7764C84.6248 42.3524 84.6736 41.9619 84.7712 41.6049C84.8661 41.2492 85.0125 40.941 85.212 40.6815C85.4086 40.4221 85.6555 40.2199 85.9526 40.0748C86.2525 39.9284 86.6053 39.8531 87.0126 39.8531C87.424 39.8531 87.7755 39.9284 88.0768 40.0748C88.3738 40.2199 88.6221 40.4221 88.8174 40.6815C89.0126 40.941 89.1605 41.2492 89.2553 41.6049C89.3502 41.9619 89.3948 42.3524 89.3948 42.7764C89.3948 43.2004 89.3488 43.5924 89.2553 43.948C89.1605 44.3051 89.014 44.6133 88.8174 44.8699C88.6221 45.1308 88.3738 45.3358 88.0768 45.4794C87.7769 45.6217 87.424 45.6956 87.0126 45.6956ZM83.5871 44.7737C83.7015 45.001 83.7754 45.2172 83.8089 45.4278C83.5871 45.5227 83.3612 45.591 83.1296 45.6343C82.9009 45.6747 82.6526 45.6956 82.3848 45.6956C81.9734 45.6956 81.6052 45.6287 81.2788 45.4948C80.9483 45.3609 80.6749 45.1698 80.4462 44.9202C80.2244 44.6719 80.0515 44.3692 79.9301 44.0122C79.8102 43.6537 79.7474 43.2534 79.7474 42.8085C79.7474 42.3566 79.8088 41.9522 79.9301 41.5867C80.0501 41.2227 80.223 40.9131 80.4462 40.655C80.6749 40.3984 80.9483 40.2018 81.2746 40.0637C81.5982 39.9242 81.9636 39.8545 82.3681 39.8545C82.6652 39.8545 82.9218 39.8768 83.138 39.9186C83.35 39.9577 83.5425 40.0079 83.7126 40.0679C83.7001 40.1878 83.6764 40.2994 83.6443 40.4026C83.608 40.5058 83.569 40.6132 83.5244 40.729C83.4462 40.7039 83.3681 40.6788 83.2956 40.6578C83.2217 40.6383 83.1422 40.6188 83.0613 40.6034C82.9762 40.5867 82.8814 40.5755 82.781 40.5672C82.6791 40.5588 82.562 40.556 82.4323 40.556C81.8618 40.556 81.4169 40.7513 81.1017 41.1362C80.7851 41.5254 80.6261 42.0847 80.6261 42.8099C80.6261 43.1837 80.6721 43.5045 80.76 43.7779C80.8479 44.0526 80.972 44.2758 81.1352 44.4543C81.2984 44.6314 81.4936 44.7639 81.7224 44.8546C81.9511 44.9439 82.2049 44.9871 82.4881 44.9871C82.707 44.9871 82.9065 44.9704 83.085 44.9341C83.2608 44.8964 83.4309 44.8448 83.5885 44.7737H83.5871ZM77.792 39.9493C77.8575 39.9396 77.9217 39.9326 77.99 39.927C78.0584 39.92 78.1239 39.9186 78.1965 39.9186C78.2648 39.9186 78.3304 39.92 78.3987 39.927C78.467 39.934 78.5326 39.9396 78.5954 39.9493V45.5994C78.534 45.6105 78.4684 45.6189 78.4029 45.6259C78.3415 45.6301 78.269 45.6343 78.1979 45.6343C78.1253 45.6343 78.057 45.6315 77.9886 45.6259C77.9175 45.6189 77.852 45.6105 77.7934 45.5994V39.9493H77.792ZM74.6329 40.6495H73.1643C73.1517 40.5965 73.1447 40.5379 73.1419 40.4765C73.135 40.4124 73.1322 40.3538 73.1322 40.2952C73.1322 40.238 73.135 40.1781 73.1419 40.1195C73.1447 40.0581 73.1517 40.0009 73.1643 39.9493H76.9035C76.9161 39.9995 76.9231 40.0567 76.93 40.1139C76.9328 40.1725 76.937 40.2283 76.937 40.2868C76.937 40.3454 76.9342 40.4068 76.93 40.471C76.9231 40.5379 76.9175 40.5965 76.9035 40.6481H75.4349V45.598C75.3177 45.6133 75.1838 45.6245 75.0402 45.6245C74.8965 45.6245 74.7598 45.6147 74.6329 45.598V40.6481V40.6495ZM69.2353 44.743C69.4082 44.8072 69.5882 44.863 69.7778 44.909C69.9661 44.9564 70.1949 44.9787 70.4696 44.9787C70.8992 44.9787 71.22 44.8923 71.432 44.7165C71.644 44.5408 71.7486 44.3037 71.7486 44.0038C71.7486 43.8588 71.7263 43.7332 71.6831 43.6286C71.637 43.524 71.5715 43.432 71.4808 43.3553C71.3929 43.2799 71.2814 43.2102 71.1475 43.1474C71.0136 43.0833 70.8574 43.0163 70.6816 42.9424L70.2353 42.7625C70.0819 42.6997 69.941 42.6328 69.8169 42.5547C69.69 42.4794 69.5826 42.3859 69.4905 42.2771C69.3999 42.1642 69.3246 42.0386 69.2757 41.8936C69.22 41.7513 69.1976 41.5798 69.1976 41.3789C69.1976 40.9019 69.358 40.5309 69.683 40.2589C70.0066 39.9898 70.4627 39.8545 71.0512 39.8545C71.3023 39.8545 71.5408 39.8768 71.7653 39.9186C71.9913 39.9577 72.1893 40.0135 72.3623 40.0776C72.3372 40.2966 72.2814 40.5142 72.1893 40.7276C72.0499 40.6746 71.8825 40.6285 71.6998 40.5853C71.5143 40.5449 71.3009 40.5239 71.0666 40.5239C70.7374 40.5239 70.4822 40.5909 70.3037 40.7248C70.1279 40.8573 70.0359 41.0581 70.0359 41.3245C70.0359 41.4333 70.0582 41.5337 70.1042 41.6174C70.1474 41.7053 70.206 41.7806 70.2799 41.8476C70.3511 41.9117 70.4403 41.9703 70.538 42.0233C70.6398 42.0749 70.743 42.1209 70.8546 42.1642L71.2953 42.3385C71.5045 42.4236 71.69 42.5101 71.8532 42.6007C72.0164 42.6914 72.1531 42.8002 72.2674 42.9243C72.3846 43.047 72.4725 43.1935 72.5324 43.358C72.591 43.5282 72.6231 43.7221 72.6231 43.948C72.6231 44.4892 72.4376 44.9146 72.0652 45.2242C71.6928 45.538 71.1712 45.6942 70.4989 45.6942C70.3357 45.6942 70.1893 45.6873 70.0582 45.6775C69.9313 45.6677 69.8071 45.6496 69.6956 45.6315C69.5812 45.6078 69.4738 45.5813 69.3692 45.5534C69.2618 45.5213 69.1572 45.4878 69.0456 45.4488C69.0554 45.3344 69.0791 45.2158 69.1167 45.0959C69.1502 44.9759 69.1921 44.8574 69.2339 44.7402L69.2353 44.743ZM66.0386 39.4793C65.966 39.4905 65.8949 39.4974 65.8224 39.503C65.7471 39.5058 65.6759 39.5114 65.6034 39.5114C65.5281 39.5114 65.4625 39.5072 65.3984 39.503C65.337 39.496 65.2673 39.4905 65.1961 39.4793L66.0288 38.6299C66.1139 38.6201 66.2017 38.6104 66.2952 38.602C66.39 38.5936 66.4849 38.5908 66.5797 38.5908C66.6774 38.5908 66.7722 38.5936 66.8601 38.602C66.9479 38.6104 67.0302 38.6201 67.1055 38.6299L66.0386 39.4793ZM65.8461 45.0038C66.1111 45.0038 66.3356 44.9536 66.5281 44.8518C66.7206 44.75 66.8768 44.6022 67.0009 44.4083C67.1279 44.2144 67.2227 43.9829 67.2841 43.7067C67.3496 43.4348 67.3789 43.1265 67.3789 42.7806C67.3789 42.4417 67.3496 42.1335 67.2841 41.8587C67.2227 41.5812 67.1279 41.3496 67.0009 41.1572C66.8768 40.9661 66.7206 40.8196 66.5281 40.7178C66.3356 40.6146 66.1111 40.5644 65.8461 40.5644C65.5853 40.5644 65.3607 40.6146 65.1682 40.7178C64.9758 40.8196 64.8196 40.9647 64.6912 41.1572C64.5671 41.3496 64.4723 41.5812 64.4109 41.8587C64.3454 42.1335 64.3161 42.4403 64.3161 42.7806C64.3161 43.1265 64.3454 43.4348 64.4109 43.7067C64.4723 43.9829 64.5671 44.2144 64.6912 44.4083C64.8182 44.6022 64.9758 44.7514 65.1682 44.8518C65.3607 44.9536 65.5853 45.0038 65.8461 45.0038ZM65.8461 45.697C65.4416 45.697 65.086 45.6231 64.7861 45.4808C64.489 45.3372 64.238 45.1335 64.0413 44.8713C63.846 44.6161 63.6982 44.3079 63.6047 43.9494C63.5071 43.5938 63.4583 43.2018 63.4583 42.7778C63.4583 42.3538 63.5071 41.9633 63.6047 41.6063C63.6996 41.2506 63.846 40.9424 64.0413 40.6829C64.2366 40.4235 64.489 40.2213 64.7861 40.0762C65.086 39.9298 65.4416 39.8545 65.8461 39.8545C66.2575 39.8545 66.6104 39.9298 66.9103 40.0762C67.2073 40.2213 67.4556 40.4235 67.6509 40.6829C67.8461 40.9424 67.994 41.2506 68.0874 41.6063C68.1823 41.9633 68.2283 42.3538 68.2283 42.7778C68.2283 43.2018 68.1823 43.5938 68.0874 43.9494C67.9926 44.3065 67.8461 44.6147 67.6509 44.8713C67.4542 45.1322 67.206 45.3372 66.9103 45.4808C66.6104 45.6231 66.2575 45.697 65.8461 45.697ZM58.341 39.9507C58.3996 39.9409 58.4624 39.934 58.5265 39.9284C58.5921 39.9214 58.6534 39.92 58.7092 39.92C58.7678 39.92 58.8306 39.9214 58.8961 39.9284C58.9617 39.9354 59.023 39.9409 59.0816 39.9507L61.5391 44.1963V39.9507C61.6047 39.9409 61.6689 39.934 61.7344 39.9284C61.8028 39.9214 61.8711 39.92 61.9394 39.92C61.998 39.92 62.0566 39.9214 62.1221 39.9284C62.1835 39.9354 62.2463 39.9409 62.3021 39.9507V45.6008C62.2463 45.6119 62.1849 45.6203 62.1152 45.6273C62.0538 45.6315 61.9883 45.6357 61.9325 45.6357C61.8739 45.6357 61.8111 45.6329 61.7456 45.6273C61.68 45.6203 61.6186 45.6119 61.5629 45.6008L59.0956 41.3817V45.6008C59.0342 45.6119 58.9756 45.6203 58.9101 45.6273C58.8445 45.6315 58.7804 45.6357 58.7176 45.6357C58.6493 45.6357 58.5809 45.6329 58.5154 45.6273C58.4498 45.6203 58.3912 45.6119 58.3396 45.6008V39.9507H58.341ZM56.2601 42.676C56.3214 42.6663 56.387 42.6579 56.4553 42.6537C56.5237 42.6509 56.592 42.6453 56.6576 42.6453C56.7259 42.6453 56.7984 42.6495 56.8626 42.6537C56.9309 42.6579 56.9937 42.6663 57.0523 42.676V45.4348C56.9407 45.4822 56.8235 45.5241 56.6897 45.5575C56.5599 45.5924 56.4233 45.6175 56.2824 45.6357C56.1429 45.6538 55.9979 45.6705 55.8584 45.6803C55.7175 45.69 55.5836 45.697 55.4567 45.697C55.0355 45.697 54.6603 45.6315 54.3242 45.5004C53.9881 45.3679 53.7077 45.1768 53.4762 44.9313C53.2474 44.6803 53.0689 44.379 52.9448 44.0219C52.8248 43.6649 52.7621 43.2604 52.7621 42.8099C52.7621 42.358 52.8234 41.9535 52.9476 41.5881C53.0745 41.2241 53.2544 40.9145 53.4887 40.6564C53.7203 40.3998 53.9978 40.2032 54.32 40.0651C54.6436 39.9256 54.9992 39.8559 55.3939 39.8559C55.691 39.8559 55.9518 39.8754 56.1708 39.9145C56.3926 39.9549 56.5906 40.0065 56.7678 40.0776C56.758 40.1962 56.7357 40.3092 56.7022 40.411C56.6659 40.5114 56.6283 40.6216 56.5781 40.7387C56.4316 40.6899 56.2754 40.6481 56.1053 40.6118C55.9323 40.5742 55.7203 40.556 55.4623 40.556C55.1847 40.556 54.9337 40.6062 54.7049 40.7039C54.4762 40.8057 54.2837 40.9479 54.1247 41.1404C53.9643 41.3315 53.8402 41.5672 53.7482 41.8489C53.6603 42.1279 53.6143 42.4487 53.6143 42.8099C53.6143 43.1837 53.6603 43.5045 53.7551 43.7723C53.8458 44.0429 53.9727 44.2702 54.1429 44.4487C54.313 44.6287 54.5083 44.7625 54.7356 44.8504C54.9616 44.9355 55.2154 44.9787 55.493 44.9787C55.6589 44.9787 55.8054 44.969 55.9337 44.9508C56.0578 44.9327 56.1652 44.9118 56.2573 44.8839V42.6746L56.2601 42.676ZM48.9893 43.5979H50.709L49.8443 40.7122L48.9893 43.5979ZM50.921 44.2967H48.7745L48.3924 45.6008C48.324 45.6119 48.2557 45.6203 48.1832 45.6273C48.1176 45.6315 48.0493 45.6357 47.9809 45.6357C47.9098 45.6357 47.8373 45.6329 47.7661 45.6273C47.695 45.6203 47.6322 45.6119 47.5737 45.6008L49.4147 39.9507C49.4831 39.9409 49.5542 39.934 49.6323 39.9284C49.7104 39.9214 49.7927 39.92 49.8778 39.92C49.9489 39.92 50.0242 39.9214 50.1065 39.9284C50.1818 39.9354 50.2599 39.9409 50.3352 39.9507L52.1651 45.6008C52.1038 45.6119 52.0312 45.6203 51.9531 45.6273C51.875 45.6315 51.7969 45.6357 51.7244 45.6357C51.6561 45.6357 51.5877 45.6329 51.5152 45.6273C51.4427 45.6203 51.3785 45.6119 51.3157 45.6008L50.921 44.2967ZM45.9544 39.9507C46.0157 39.9409 46.0813 39.934 46.1496 39.9284C46.218 39.9214 46.2863 39.92 46.3547 39.92C46.423 39.92 46.4914 39.9214 46.5569 39.9284C46.6252 39.9354 46.6908 39.9409 46.7522 39.9507V45.6008C46.6908 45.6119 46.6252 45.6203 46.5639 45.6273C46.4983 45.6315 46.4272 45.6357 46.3547 45.6357C46.2863 45.6357 46.218 45.6329 46.1427 45.6273C46.0743 45.6203 46.0088 45.6119 45.9544 45.6008V39.9507ZM41.2681 44.9397C41.3434 44.9522 41.434 44.9606 41.5387 44.9704C41.646 44.9759 41.7604 44.9801 41.8818 44.9801C42.1914 44.9801 42.4731 44.9439 42.727 44.8727C42.9808 44.8044 43.1998 44.6858 43.3825 44.5185C43.568 44.3469 43.7089 44.1224 43.8065 43.8364C43.9083 43.5505 43.9571 43.1949 43.9571 42.7639C43.9571 42.3706 43.9083 42.0358 43.8065 41.7583C43.7089 41.4793 43.568 41.2548 43.3853 41.0777C43.2054 40.9019 42.9878 40.7764 42.7367 40.6969C42.4857 40.6174 42.2081 40.5783 41.9055 40.5783C41.8064 40.5783 41.6963 40.5797 41.5819 40.5825C41.4605 40.5853 41.3601 40.5937 41.2681 40.6104V44.9397ZM40.4661 39.9507C40.6446 39.9312 40.8608 39.9103 41.1119 39.8921C41.3629 39.874 41.6084 39.8642 41.8497 39.8642C42.8413 39.8642 43.5791 40.1153 44.0715 40.6174C44.5624 41.1223 44.8065 41.8462 44.8065 42.7876C44.8065 43.7737 44.5555 44.5045 44.0561 44.9801C43.5568 45.4585 42.8093 45.697 41.8204 45.697C41.5763 45.697 41.3308 45.6873 41.0895 45.6677C40.8483 45.651 40.639 45.6287 40.4675 45.6008V39.9507H40.4661Z" fill="white"/>
<path fill-rule="evenodd" clip-rule="evenodd" d="M3.00945 19.155C-2.69336 26.8967 0.420666 35.0582 6.42106 39.1541C8.52038 40.5846 11.2084 41.5392 14.0362 41.693C13.9809 40.104 14.472 38.3916 15.742 36.8699C18.1698 33.9577 23.0986 33.6341 26.476 31.438C27.9753 30.4608 29.2518 29.2851 29.8551 28.1782L29.8616 28.2167C29.9299 27.9732 29.9966 27.7265 30.0616 27.475C32.465 18.1746 31.5869 6.63007 30.3413 0C29.2713 2.29866 26.8386 4.81199 23.9409 6.95527C17.4185 11.7736 7.54145 13.0087 3.00782 19.155H3.00945Z" fill="white"/>
<path fill-rule="evenodd" clip-rule="evenodd" d="M16.3762 37.493C15.1013 39.0195 14.6118 40.7415 14.6704 42.337C14.8346 47.0096 19.4138 49.4828 23.7051 48.5265C26.0207 48.0075 28.268 46.2887 29.5234 42.4042C30.9934 37.8662 30.9023 32.1219 30.4893 28.8029C29.886 29.9098 28.6095 31.0856 27.1102 32.0627C23.7344 34.2572 18.804 34.5824 16.3762 37.4946V37.493Z" fill="white"/>
<path fill-rule="evenodd" clip-rule="evenodd" d="M14.6704 42.3177C20.7765 42.6493 27.5411 39.2486 30.4974 28.8542L30.4893 28.8045C29.886 29.9114 28.6095 31.0871 27.1102 32.0643C23.7344 34.2588 18.804 34.584 16.3762 37.4961C15.1062 39.0179 14.6151 40.7303 14.6704 42.3193V42.3177Z" fill="white"/>
</svg>
